<svg xmlns="http://www.w3.org/2000/svg" width="238" height="238" viewBox="0 0 438 438">
  <g id="Logo" transform="translate(-306 -30)">
    <g id="LogoContainer" transform="translate(306 30)" fill="#fff" stroke="#707070" stroke-width="1">
      <circle cx="219" cy="219" r="219" stroke="none"/>
      <circle cx="219" cy="219" r="218.5" fill="none"/>
    </g>
    <g id="Logo-2" data-name="Logo" transform="translate(329 53)">
      <path id="Icon_awesome-road" data-name="Icon awesome-road" d="M195.375,277.617,147.727,15.3C146.033,5.976,142.342,0,138.279,0H105.015l.835,18.985c.17,3.869-1.094,7.246-2.713,7.246H93.2c-1.619,0-2.884-3.377-2.713-7.246L91.32,0H58.056C53.989,0,50.3,5.976,48.6,15.3L.956,277.617c-3.153,17.37,1.878,37.158,9.455,37.158H77.5L81.019,234.7c.293-6.673,2.631-11.738,5.423-11.738h23.451c2.792,0,5.13,5.066,5.423,11.738l3.514,80.071h67.094C193.5,314.775,198.531,294.987,195.375,277.617ZM88.76,58.332c.147-3.338,1.317-5.871,2.713-5.869h13.392c1.394,0,2.567,2.533,2.713,5.869l1.568,35.724c.256,5.812-1.64,10.87-4.066,10.87H91.262c-2.43,0-4.322-5.058-4.066-10.87L88.76,58.332Zm18.829,138.4H88.743c-3.238,0-5.764-6.746-5.423-14.493l1.728-39.347c.293-6.673,2.631-11.738,5.423-11.738h15.39c2.792,0,5.13,5.066,5.423,11.738l1.728,39.347c.341,7.746-2.185,14.493-5.423,14.493Z" transform="translate(148.293 16.098) rotate(17)" fill="#505050"/>
      <path id="Icon_material-access-time" data-name="Icon material-access-time" d="M198.959,3C90.681,3,3,90.877,3,199.155S90.681,395.309,198.959,395.309c108.474,0,196.351-87.877,196.351-196.155S307.432,3,198.959,3Zm.2,353.078A156.924,156.924,0,1,1,356.078,199.155,156.881,156.881,0,0,1,199.155,356.078Zm9.808-255H179.539V218.77L282.52,280.559l14.712-24.127-88.27-52.373Z" transform="translate(-3 -3)" fill="#95dc66"/>
    </g>
  </g>
</svg>
