<?xml version="1.0" standalone="no"?>
<!DOCTYPE svg PUBLIC "-//W3C//DTD SVG 20010904//EN"
 "http://www.w3.org/TR/2001/REC-SVG-20010904/DTD/svg10.dtd">
<svg version="1.0" xmlns="http://www.w3.org/2000/svg"
 width="393.000000pt" height="393.000000pt" viewBox="0 0 393.000000 393.000000"
 preserveAspectRatio="xMidYMid meet">

<g transform="translate(0.000000,393.000000) scale(0.100000,-0.100000)"
fill="#000000" stroke="none">
<path d="M1927 3518 c-26 -40 -1257 -2429 -1257 -2438 0 -5 26 -42 58 -82 143
-180 329 -332 527 -431 l50 -25 129 367 c145 411 160 447 191 467 19 13 34 11
141 -22 65 -20 125 -43 132 -52 6 -9 12 -32 12 -51 0 -20 -47 -214 -103 -431
l-103 -395 36 -9 c19 -5 116 -10 215 -10 201 0 301 13 472 66 98 30 103 32
108 62 6 32 85 701 85 716 0 8 -594 370 -608 370 -3 0 -18 -12 -34 -27 l-27
-26 -97 29 c-53 15 -103 34 -110 42 -18 18 -18 89 1 142 13 36 15 131 15 606
l0 564 150 0 149 0 3 -132 3 -131 49 137 c27 75 56 147 66 159 l18 22 70 -23
c39 -12 73 -30 76 -38 9 -23 -91 -412 -116 -451 -22 -38 -43 -41 -108 -18 -23
8 -46 15 -51 15 -5 0 -9 -60 -9 -134 l0 -134 30 -7 c58 -13 63 -59 24 -208
-15 -54 -22 -102 -18 -106 18 -16 556 -332 559 -329 5 5 195 1621 195 1658 0
26 -8 35 -56 66 -70 45 -273 144 -295 144 -13 0 -21 -19 -34 -72 -20 -84 -41
-139 -56 -149 -6 -3 -35 1 -65 9 -40 11 -56 21 -60 37 -3 12 10 67 30 122 l34
102 -49 10 c-73 16 -172 29 -271 36 -83 6 -88 5 -101 -17z"/>
</g>
</svg>
